<svg width="20" height="20" viewBox="0 0 20 20" fill="none" xmlns="http://www.w3.org/2000/svg">
                                        <path fill-rule="evenodd" clip-rule="evenodd"
                                            d="M6.74214 4.44444C6.74214 3.56039 7.08538 2.71254 7.69636 2.08742C8.30734 1.4623 9.136 1.11111 10.0001 1.11111C10.8641 1.11111 11.6928 1.4623 12.3038 2.08742C12.9147 2.71254 13.258 3.56039 13.258 4.44444C13.258 5.3285 12.9147 6.17635 12.3038 6.80147C11.6928 7.42659 10.8641 7.77778 10.0001 7.77778C9.136 7.77778 8.30734 7.42659 7.69636 6.80147C7.08538 6.17635 6.74214 5.3285 6.74214 4.44444V4.44444ZM10.0001 0C8.84798 0 7.7431 0.468253 6.92846 1.30175C6.11382 2.13524 5.65616 3.2657 5.65616 4.44444C5.65616 5.62318 6.11382 6.75365 6.92846 7.58714C7.7431 8.42064 8.84798 8.88889 10.0001 8.88889C11.1521 8.88889 12.257 8.42064 13.0717 7.58714C13.8863 6.75365 14.3439 5.62318 14.3439 4.44444C14.3439 3.2657 13.8863 2.13524 13.0717 1.30175C12.257 0.468253 11.1521 0 10.0001 0V0ZM16.0598 13.5C17.2761 14.4111 18.0471 15.9889 18.134 18.8889H1.86612C1.953 16 2.72404 14.4111 3.92947 13.5C5.28693 12.5 7.28512 12.2222 10.0001 12.2222C12.715 12.2222 14.724 12.5111 16.0598 13.5ZM10.0001 11.1111C7.28512 11.1111 4.95028 11.3778 3.2996 12.6111C1.60549 13.8667 0.769287 16.0333 0.769287 19.4444V20H19.2308V19.4444C19.2308 16.0333 18.3946 13.8667 16.7005 12.6111C15.0498 11.3889 12.715 11.1111 10.0001 11.1111Z"
                                            fill="#121212" />
                                    </svg>