<svg xmlns="http://www.w3.org/2000/svg" width="20" height="20" viewBox="0 0 20 20"
    fill="none">
    <path fill-rule="evenodd" clip-rule="evenodd"
        d="M4.53516 0H0.899313L0.0133624 13.6954C-0.0402619 14.5027 0.0684404 15.3127 0.332718 16.0751C0.596995 16.8375 1.0112 17.536 1.54962 18.1273C2.08804 18.7185 2.73916 19.1898 3.46256 19.512C4.18596 19.8341 4.96618 20.0003 5.75478 20H14.2461C15.0336 20.0001 15.8128 19.8344 16.5354 19.5129C17.258 19.1915 17.9085 18.7212 18.4468 18.1313C18.985 17.5413 19.3995 16.8443 19.6645 16.0833C19.9296 15.3223 20.0395 14.5136 19.9875 13.7072L19.09 0H4.53516ZM4.53516 1.18064H1.98086L1.16395 13.778C1.12139 14.4235 1.20853 15.0711 1.41996 15.6805C1.63139 16.29 1.96261 16.8484 2.39306 17.3211C2.82351 17.7938 3.34402 18.1707 3.9223 18.4284C4.50058 18.6862 5.1243 18.8192 5.75478 18.8194H14.2461C14.8775 18.8208 15.5025 18.689 16.0822 18.432C16.6618 18.1749 17.1837 17.7983 17.6154 17.3254C18.0471 16.8526 18.3793 16.2936 18.5914 15.6833C18.8036 15.073 18.891 14.4245 18.8484 13.778L18.02 1.18064H15.4657V1.92444C15.4657 2.6609 15.3243 3.39014 15.0497 4.07054C14.775 4.75094 14.3725 5.36916 13.865 5.88991C13.3575 6.41067 12.755 6.82375 12.0919 7.10558C11.4288 7.38741 10.7181 7.53247 10.0004 7.53247C9.28272 7.53247 8.57204 7.38741 7.90896 7.10558C7.24588 6.82375 6.6434 6.41067 6.1359 5.88991C5.6284 5.36916 5.22583 4.75094 4.95118 4.07054C4.67652 3.39014 4.53516 2.6609 4.53516 1.92444V1.18064ZM14.3151 1.18064H5.68574V1.92444C5.68574 3.09866 6.14032 4.22478 6.94948 5.05508C7.75865 5.88537 8.8561 6.35183 10.0004 6.35183C11.1448 6.35183 12.2422 5.88537 13.0514 5.05508C13.8605 4.22478 14.3151 3.09866 14.3151 1.92444V1.18064Z"
        fill="#121212" />
</svg>