<svg width="20" height="20" viewBox="0 0 20 20" fill="none"
      xmlns="http://www.w3.org/2000/svg">
      <path
          d="M19.8105 18.9119L14.6469 13.8308C15.9991 12.3616 16.8299 10.4187 16.8299 8.28068C16.8292 3.7071 13.0621 0 8.41477 0C3.76743 0 0.000305176 3.7071 0.000305176 8.28068C0.000305176 12.8543 3.76743 16.5614 8.41477 16.5614C10.4227 16.5614 12.2644 15.8668 13.711 14.7122L18.8947 19.8134C19.1473 20.0622 19.5574 20.0622 19.8099 19.8134C20.0631 19.5646 20.0631 19.1607 19.8105 18.9119ZM8.41477 15.2873C4.48262 15.2873 1.29499 12.1504 1.29499 8.28068C1.29499 4.41101 4.48262 1.27403 8.41477 1.27403C12.347 1.27403 15.5346 4.41101 15.5346 8.28068C15.5346 12.1504 12.347 15.2873 8.41477 15.2873Z"
          fill="#121212" />
  </svg>